<svg width="73" height="99" viewBox="0 0 73 99" fill="none" xmlns="http://www.w3.org/2000/svg">
<path d="M0 26.0518L6.60719 33.2095V85.5165H0V26.0518Z" fill="white"/>
<rect x="32.985" y="0.0397949" width="6.60719" height="26.0519" transform="rotate(-0.345929 32.985 0.0397949)" fill="white"/>
<rect x="46.2502" y="6.45044" width="6.60719" height="19.8216" transform="rotate(90 46.2502 6.45044)" fill="white"/>
<path d="M66.0718 32.7691L72.679 26.0518V85.5165H66.0718V32.7691Z" fill="white"/>
<path d="M0 98.7311L39.8634 25.8318H33.1461L0 85.4066V98.7311Z" fill="white"/>
<path d="M72.6791 98.7311L32.8157 25.8318H39.533L72.6791 85.4066V98.7311Z" fill="white"/>
<path d="M0 32.4387V19.4446L36.5598 72.6325V85.1861L0 32.4387Z" fill="white"/>
<path d="M72.6791 32.4605V19.4446L36.5598 72.7215V85.2962L72.6791 32.4605Z" fill="white"/>
</svg>
