<svg width="34" height="32" viewBox="0 0 34 32" fill="none" xmlns="http://www.w3.org/2000/svg">
<path d="M16.0558 5.62887C16.0558 11.0701 15.6807 11.2577 7.42863 11.2577C2.36485 11.2577 -0.635914 12.0083 0.114276 13.134C0.676919 14.0722 4.61542 15.0103 8.74146 15.0103H16.0558V23.4536C16.0558 28.1443 16.9936 31.8969 17.9313 31.8969C19.0566 31.8969 19.8068 28.1443 19.8068 23.4536C19.8068 15.0103 19.8068 15.0103 26.1834 15.0103C29.7468 15.0103 33.3102 14.0722 33.8728 13.134C34.623 12.0083 31.9974 11.2577 27.4962 11.2577C20.1819 11.2577 19.8068 10.8825 19.8068 5.62887C19.8068 2.43918 19.0566 3.8147e-06 17.9313 3.8147e-06C16.9936 3.8147e-06 16.0558 2.43918 16.0558 5.62887Z" fill="#FFFFFF"/>
<path d="M6.65979 3.30572C6.65979 5.23016 10.8727 9.46393 12.7877 9.46393C13.7452 9.46393 13.3622 7.73193 12.0217 5.61505C9.53225 1.76617 6.65979 0.419061 6.65979 3.30572Z" fill="#FFFFFF"/>
<path d="M25.5286 4.5797C21.5013 9.29154 25.3368 10.4224 29.9394 5.89902C33.1996 2.50649 33.3914 1.7526 30.8983 1.7526C29.3641 1.7526 26.871 3.07191 25.5286 4.5797Z" fill="#FFFFFF"/>
<path d="M21.7319 18.3124C21.7319 19.2463 23.814 22.0479 26.4639 24.476C29.1138 26.9041 31.1959 28.0248 31.1959 26.9041C31.1959 25.9702 29.1138 23.1686 26.4639 20.7405C23.814 18.3124 21.7319 17.1917 21.7319 18.3124Z" fill="#FFFFFF"/>
<path d="M7.09055 22.6449C3.71757 28.0346 4.27974 29.3356 8.58965 25.4327C12.3374 22.0873 13.4617 18.9278 10.8383 18.9278C10.0887 18.9278 8.40226 20.6005 7.09055 22.6449Z" fill="#FFFFFF"/>
</svg>
